# File produced by Open Asset Import Library (http://www.assimp.sf.net)
# (assimp v5.0.4193295597)

mtllib rock.mtl

# 98 vertex positions
v  -0.63091999 -0.59232998 -0.22633
v  -0.53786999 -1.15438 -0.057999998
v  -1.05209 -0.95450997 -0.064599998
v  -1.15573 -0.45947 -0.21785
v  -0.67791998 -0.69818002 1.3297
v  -1.17643 -0.64638001 1.28123
v  -1.01978 -1.10596 1.17495
v  -0.61027998 -1.32788 1.1479501
v  1.11593 -0.98097003 1.06789
v  0.80846 -0.90208 1.34641
v  0.44400999 -1.5138201 1.03271
v  0.93632001 -1.4264899 0.67755002
v  -0.94450998 -1.3923399 0.74361998
v  -1.28159 -1.21808 0.88398999
v  -1.71944 0.69977999 0.91650999
v  -1.35602 0.71684998 1.2450401
v  -0.68186003 1.48157 1.18046
v  -0.97452998 1.43144 0.92606997
v  -0.75105 1.12301 0.14906
v  -0.32146001 0.70204997 -0.0603
v  -0.69243997 0.83582997 -0.1143
v  -1.06328 1.01561 0.074519999
v  -0.35969001 0.59675002 -0.21968
v  -0.47622001 0.037390001 -0.27404001
v  -1.09463 0.11846 -0.25402001
v  -0.86236 0.53710997 -0.2192
v  0.54806 0.65762001 -0.28411001
v  0.48041999 0.11106 -0.31211999
v  -0.015790001 0.06024 -0.31270999
v  0.17279001 0.53245997 -0.18847001
v  0.38345 -0.53316998 -0.29815
v  0.24359 -1.19107 -0.14148
v  -0.15456 -1.22899 -0.1145
v  -0.10627 -0.59596002 -0.27434999
v  0.34277999 -0.86369002 1.37089
v  -0.19801 -0.63081998 1.3603801
v  -0.34485 -1.73 1.15238
v  -0.065279998 -1.7960401 1.1029299
v  0.80155998 0.71666998 1.33331
v  0.063000001 0.99431002 1.2763
v  0.04611 0.25373 1.35157
v  0.61150002 0.29078001 1.35234
v  -0.54417998 0.88941002 1.29005
v  -1.17709 -0.0098000001 1.3032399
v  -0.60334003 0.01128 1.34358
v  1.34767 -0.74681997 0.18976
v  1.26746 -1.00836 0.63072997
v  1.15527 -1.38159 0.47804001
v  1.01459 -1.31295 0.18348999
v  1.32379 0.85606003 0.12738
v  1.26711 0.68972999 0.60021001
v  1.17518 -0.16903 0.69247001
v  1.2689 0.063879997 0.24109
v  1.42354 0.70704001 0.89721
v  1.23195 0.59447002 1.21687
v  0.97543001 -0.04789 1.24656
v  1.05091 -0.19751 1.0685
v  -0.70669001 -1.34694 0.19064
v  -1.04357 -1.28959 0.40292999
v  -1.64806 -0.85359001 0.45201001
v  -1.57134 -0.77070999 0.11028
v  0.49427 -1.39946 0.15344
v  0.66702998 -1.44868 0.43992999
v  0.26008001 -1.36545 0.45264
v  -0.13512 -1.50502 0.15668
v  0.52419001 -1.41045 0.69141001
v  -0.066869996 -1.60219 0.65205997
v  -1.34644 0.80808002 -0.078699999
v  -1.7599 0.72460997 0.31961
v  -1.18573 1.1335599 0.48155999
v  -1.55038 -0.48763999 0.03351
v  -1.64648 -0.45901999 0.46261001
v  -1.64888 0.064029999 0.42982
v  -1.54844 0.25558999 -0.1538
v  -1.43432 -0.74677998 1.0171
v  -1.48305 -0.045329999 1.0685199
v  -0.26320001 1.7167701 0.91677999
v  -0.77546 1.4025 0.49755999
v  0.80203998 1.52859 0.85031998
v  0.55632001 1.4965 0.44927001
v  -0.19982 1.53642 0.33682001
v  0.15323 1.83223 0.83925003
v  0.51270998 1.19838 0.11469
v  0.46895 1.0268101 -0.14286
v  0.067259997 0.78351998 -0.07271
v  -0.18052 1.2339 0.06095
v  0.89692998 1.07806 -0.1167
v  1.04202 0.63787001 -0.19049001
v  1.04541 0.148 -0.1576
v  1.00887 -0.47025999 -0.12646
v  0.73631001 -1.0667599 -0.076030001
v  1.30375 1.02354 1.08375
v  0.77045 1.2997 1.12219
v  0.10526 1.58507 1.12682
v  -0.17499 1.80116 1.1471699
v  1.08127 1.28756 0.17512
v  1.2003599 1.2216901 0.53825003
v  1.38583 1.18181 0.80757999

# 165 UV coordinates
vt 0.13764 0.56340998 0
vt 0.058290001 0.56987 0
vt 0.082610004 0.50665998 0
vt 0.15290999 0.49868 0
vt 0.15503 0.34409001 0
vt 0.20632 0.37819001 0
vt 0.15563001 0.40233001 0
vt 0.099780001 0.38765001 0
vt 0.89617997 0.28288001 0
vt 0.85447001 0.3493 0
vt 0.79497999 0.24897 0
vt 0.87066001 0.17489 0
vt 0.94924003 0.58771002 0
vt 0.94408 0.69463998 0
vt 0.90565002 0.68260002 0
vt 0.91672999 0.60452002 0
vt 0.33680999 0.082010001 0
vt 0.36925 0.00083999999 0
vt 0.48919001 0 0
vt 0.46066999 0.063529998 0
vt 0.48574999 0.25494999 0
vt 0.51266998 0.31059 0
vt 0.48159999 0.32306001 0
vt 0.44732001 0.27625 0
vt 0.27684999 0.58353001 0
vt 0.21536 0.57854003 0
vt 0.22369 0.50240999 0
vt 0.27008 0.52388 0
vt 0.28852001 0.69562 0
vt 0.22645999 0.69474 0
vt 0.22081 0.63584 0
vt 0.26653001 0.64604998 0
vt 0.14963 0.68875003 0
vt 0.06005 0.66898 0
vt 0.053709999 0.62001002 0
vt 0.14066 0.62924999 0
vt 0.046020001 0.27713001 0
vt 0.11553 0.29995 0
vt 0.042020001 0.4025 0
vt 0.01139 0.38338 0
vt 0.13387001 0.094669998 0
vt 0.22614001 0.12763 0
vt 0.16569 0.19939999 0
vt 0.11622 0.14968 0
vt 0.27368 0.18756001 0
vt 0.33557999 0.26784 0
vt 0.25835001 0.32153001 0
vt 0.20619 0.27430001 0
vt 0.42295 0.65406001 0
vt 0.52046001 0.68472999 0
vt 0.47746 0.72632998 0
vt 0.40459999 0.71324003 0
vt 0.42273 0.45921001 0
vt 0.52938002 0.47909999 0
vt 0.53956997 0.58073997 0
vt 0.43983999 0.55387998 0
vt 0.74413002 0.81449002 0
vt 0.67233002 0.78745002 0
vt 0.68383998 0.71196002 0
vt 0.73167998 0.70718002 0
vt 0.01627 0.5363 0
vt 0.0066 0.48232001 0
vt 0.054400001 0.4025 0
vt 0.090850003 0.43186 0
vt 0.85706002 0.070129998 0
vt 0.85523999 0.12592 0
vt 0.81867999 0.13747001 0
vt 0.78605998 0.070160002 0
vt 0.82910001 0.18261001 0
vt 0.72081 0.25116 0
vt 0.69397998 0.26822999 0
vt 0.75874001 0.16801 0
vt 0.40807 0.31808001 0
vt 0.34849 0.22555 0
vt 0.43103001 0.17675 0
vt 0.83467001 0.40158001 0
vt 0.82173002 0.49437001 0
vt 0.75893003 0.48815 0
vt 0.74782997 0.36111999 0
vt 0.85343999 0.62884003 0
vt 0.8441 0.70064998 0
vt 0.76674002 0.70718002 0
vt 0.76646 0.63999999 0
vt 0.55500001 0.057459999 0
vt 0.49107 0.1663 0
vt 0.66119999 0.07164 0
vt 0.64244002 0.16996001 0
vt 0.56542999 0.19997001 0
vt 0.60894001 0.072159998 0
vt 0.62829 0.2559 0
vt 0.61971003 0.32111001 0
vt 0.56 0.31031999 0
vt 0.55641001 0.27153999 0
vt 0.93436003 0.18763 0
vt 0.90706003 0.13356 0
vt 0.62263 0.58178002 0
vt 0.61734003 0.67843002 0
vt 0.66292 0.56207001 0
vt 0.67233002 0.66105998 0
vt 0.93956 0.50633001 0
vt 0.86957002 0.49092001 0
vt 0.79158002 0.86622 0
vt 0.74413002 0.82121003 0
vt 0.75206 0.70718002 0
vt 0.79143 0.71174002 0
vt 1 0.60653001 0
vt 0.99988002 0.70675999 0
vt 0.67233002 0.59666002 0
vt 0.67777002 0.45978001 0
vt 0.67491001 0.68765002 0
vt 0.38773999 0.80150998 0
vt 0.33680999 0.83355999 0
vt 0.33691999 0.78592002 0
vt 0.38451999 0.72632998 0
vt 0.50621003 0.35098001 0
vt 0.44808 0.35429001 0
vt 0.55948001 0.34202999 0
vt 0.60996002 0.36111999 0
vt 0.32468 0.72289002 0
vt 0.27858999 0.74923998 0
vt 0.32095 0.67374998 0
vt 0.21838 0.75255001 0
vt 0.14323001 0.75247997 0
vt 0.06927 0.72272998 0
vt 0.80835003 0.36111999 0
vt 0.056219999 0.14588 0
vt 0 0.24133 0
vt 0.085639998 0.065339997 0
vt 0.11628 0.01477 0
vt 0.18790001 0.035190001 0
vt 0.27305001 0.064120002 0
vt 0.31652001 0.068429999 0
vt 0.33680999 0.14043 0
vt 0.34014001 0.61019999 0
vt 0.33680999 0.67491001 0
vt 0.33998999 0.5363 0
vt 0.33682999 0.47681999 0
vt 0.35315999 0.41969001 0
vt 0.42952999 0.40033001 0
vt 0.51765001 0.41266999 0
vt 0.60417002 0.48223999 0
vt 0.58645999 0.42346001 0
vt 0.64648002 0.44110999 0
vt 0.67095 0.49140999 0
vt 0 0.60845 0
vt 0.69413 0.1437 0
vt 0.73650998 0.092309996 0
vt 0.01231 0.68298 0
vt 0.01983 0.74260002 0
vt 0.91386002 0.076970004 0
vt 0.23224001 0.44051 0
vt 0.29124999 0.45453 0
vt 0.68532002 0.38872001 0
vt 0.13015001 0.43623999 0
vt 0.86711001 0.41729 0
vt 0.56392002 9.0000001e-05 0
vt 0.58209997 0.0073799998 0
vt 0.20794 0 0
vt 0.29330999 0.025250001 0
vt 0.57946998 0.36526 0
vt 0.63957 0.39286 0
vt 0.4772 0.36111999 0
vt 0.69397998 0.15019999 0
vt 0.69382 0.23710001 0
vt 0.66856998 0.31187999 0

# 192 vertex normals
vn -0.10490961 -0.30121887 -0.94776642
vn -0.094350316 -0.31237105 -0.94526309
vn -0.12036029 -0.26244062 0.9574123
vn -0.091659673 -0.28522897 0.95406651
vn 0.44434914 -0.60399878 0.66161871
vn 0.50685018 -0.67457026 0.5367102
vn -0.40019926 -0.79410851 0.45741913
vn -0.21537054 -0.83044207 0.51379132
vn -0.57195127 0.55521119 0.60383129
vn -0.58538371 0.58869374 0.55746353
vn 0.33835113 0.67260224 -0.65812218
vn -0.053150062 0.66902077 -0.74134088
vn -0.019020002 0.10065001 -0.99474007
vn -0.011519947 0.089219585 -0.99594533
vn -0.0040999828 0.05166978 -0.9986558
vn -0.34228992 0.36452991 -0.86599976
vn -0.044810228 -0.22240113 -0.97392493
vn -0.015880011 -0.24366017 -0.96973068
vn -0.093560092 -0.17304017 0.98046094
vn 0.093380027 -0.3125501 0.94530028
vn -0.03843008 0.10190021 0.99405205
vn -0.0044300151 0.046610158 0.99890333
vn -0.068570234 0.062870212 0.99566334
vn -0.072380051 0.065550044 0.99522072
vn 0.9573493 -0.28891978 0.0027699978
vn 0.76379639 -0.44418788 -0.46830776
vn 0.99166471 -0.097049482 0.084749542
vn 0.9823423 -0.041900098 0.18234043
vn 0.85743743 -0.32392901 0.39983881
vn 0.81024212 -0.23184061 0.53829145
vn -0.49295914 -0.61405891 -0.6163789
vn -0.50737077 -0.80442131 -0.30900046
vn -0.20155969 -0.97836852 -0.046569929
vn 0.16192999 -0.95824999 0.23566
vn -0.26246032 -0.48750064 -0.83274108
vn 0.31197983 -0.94759947 -0.068729959
vn -0.48333099 0.81006169 -0.33195069
vn -0.41314927 0.8339085 -0.36592934
vn -0.97592348 -0.018100066 -0.21736078
vn -0.98207998 -0.043650001 -0.18334
vn -0.71051037 -0.025060013 0.70324033
vn -0.59832072 -0.099850111 0.79501086
vn -0.54890919 0.83466876 0.045019932
vn -0.3451297 0.84724927 -0.40379965
vn 0.070460021 0.98998028 -0.12237003
vn 0.33415127 0.69061267 -0.64140242
vn -0.52396142 0.74724203 -0.4087711
vn 0.089730293 0.32841107 -0.94026309
vn -0.033180114 -0.067410238 -0.99717349
vn -0.039929822 -0.058209736 -0.99750549
vn -0.091370471 -0.045540236 -0.99477512
vn -0.080809988 -0.055559989 -0.99517977
vn -0.18516964 -0.22729956 -0.95605814
vn -0.089029916 -0.29925972 -0.95000911
vn -0.02212996 -0.27943948 0.95990825
vn -0.24191071 -0.14911044 0.95877278
vn -0.0051899776 -0.019019919 0.99980563
vn -0.067769982 0.028639995 0.99728984
vn -0.068829991 -0.034549996 0.99702996
vn -0.097720139 -0.0092000132 0.99517143
vn 0.76378882 -0.5712291 0.30053952
vn 0.65091264 -0.44676179 0.61377245
vn 0.94480968 0.07815998 0.31815991
vn 0.94335812 0.080029845 0.32197937
vn 0.87555027 -0.11634003 0.46891016
vn 0.67811841 0.055709865 0.73283821
vn -0.49390754 -0.86170572 -0.11626942
vn -0.585428 -0.79229724 -0.1718694
vn -0.19941978 -0.45544949 -0.86763906
vn -0.045320034 -0.95999074 -0.27634022
vn -0.71178144 -0.47554097 -0.51694101
vn -0.19098999 -0.93249989 0.30653998
vn -0.69915998 0.71081001 0.076970004
vn -0.49138826 0.81330723 -0.31155893
vn -0.94480509 -0.25873137 0.20100108
vn -0.98597014 -0.15563004 0.060350008
vn -0.60036111 -0.084130161 0.79529154
vn -0.66780913 -0.060509916 0.74186897
vn -0.11564007 0.77090049 -0.62637037
vn -0.4976607 0.78155106 -0.3761805
vn -0.2376091 0.64618754 -0.72524726
vn -0.33666945 0.72291881 -0.60335898
vn -0.081589974 0.24203992 -0.96682972
vn -0.1976198 0.2673797 -0.94310898
vn -0.10027963 0.8410269 -0.53161806
vn 0.2152897 0.21227971 -0.95319867
vn 0.10655012 0.45292053 -0.88516104
vn -0.19215974 0.83935893 -0.50847936
vn -0.09431985 0.28834951 -0.95286846
vn 0.068209991 0.082429983 -0.99425989
vn -0.32302922 0.27701932 -0.9049378
vn -0.3266902 0.27904019 -0.90300059
vn 0.19012013 0.22295015 -0.95611066
vn 0.013910044 0.35991114 -0.93288291
vn 0.26709872 -0.062729694 -0.96162534
vn 0.18718977 0.027139967 -0.98194879
vn -0.04666017 -0.014630054 -0.99880368
vn 0.0072700055 -0.059350044 -0.99821079
vn 0.27019107 -0.064350255 -0.96065384
vn 0.26701894 -0.061039761 -0.96175623
vn 0.16943946 -0.15962949 -0.97252697
vn 0.28019994 -0.27834994 -0.9186998
vn 0.02668005 -0.28689054 0.95759177
vn 0.42615908 -0.6007387 0.6763885
vn 0.24342936 -0.041099891 0.96904743
vn 0.060760107 0.10417019 0.99270177
vn -0.0020700048 0.010540024 0.9999423
vn -0.011370006 0.018700009 0.99976051
vn 0.24329023 -0.065330058 0.96775091
vn 0.23610029 -0.049420059 0.9704712
vn 0.24239987 0.34172979 0.90799946
vn 0.31501949 0.23272963 0.9201085
vn 0.10820948 0.23658887 0.96556532
vn 0.056400031 0.34259018 0.93779051
vn 0.012220021 0.060030103 0.99812174
vn -0.050329957 0.10210991 0.9934991
vn 0.14518037 0.095530249 0.98478252
vn -0.020680079 0.24665093 0.96888369
vn 0.027909959 0.059659909 0.99782848
vn -0.094869711 0.19149941 0.976897
vn 0.5134474 -0.29314852 -0.8064959
vn 0.4978902 -0.29639012 -0.81502038
vn 0.87666124 0.11476016 -0.46722066
vn 0.64627033 -0.076440044 -0.75927043
vn 0.96530044 0.088050038 0.2458501
vn 0.97123998 0.080169998 0.2242
vn 0.78686094 -0.14077017 -0.60086071
vn 0.86952132 -0.02711004 -0.49315077
vn 0.60459185 0.41502127 -0.6798721
vn 0.58997864 0.31881925 -0.7418083
vn 0.95123523 0.084809579 -0.2965785
vn 0.85358465 0.45088717 0.26094836
vn 0.81557482 -0.41277736 -0.40552744
vn 0.94880182 -0.068430126 0.30837059
vn 0.81990641 -0.042639814 -0.57090747
vn 0.88202089 0.056170058 -0.46785048
vn 0.96751696 -0.088419728 0.23683926
vn 0.81809247 0.16878051 0.54976165
vn -0.34383997 -0.61490995 -0.70968992
vn -0.35971054 -0.92850137 -0.092160143
vn -0.23157886 -0.69000661 -0.68575662
vn -0.23496997 -0.6847499 -0.68985987
vn -0.069300115 -0.86342144 0.49970084
vn -0.27211091 -0.94598323 -0.1762706
vn 0.12380001 -0.75777006 -0.64067006
vn 0.018289989 -0.70002961 -0.71387959
vn 0.14907999 -0.63262999 -0.75997001
vn 0.26127955 -0.66960883 -0.69523883
vn 0.15258029 -0.94391179 -0.29283056
vn 0.17304955 -0.94796747 -0.26722929
vn 0.27681956 -0.91412848 0.29620951
vn -0.13346994 -0.52416974 -0.84108967
vn -0.046460044 -0.96240091 -0.26763025
vn 0.1166195 -0.96991593 0.2136891
vn 0.47537795 -0.73910677 0.47721794
vn -0.051149979 -0.69115973 -0.72088969
vn 0.058570053 0.53999048 -0.83963078
vn -0.23099023 0.43671045 -0.86944091
vn -0.15691036 0.18914044 -0.96933228
vn -0.17983063 0.18019062 -0.96705341
vn -0.95297104 -0.1983802 -0.22911024
vn -0.68736029 0.33866015 -0.64253026
vn -0.51481283 -0.20825112 -0.83162445
vn -0.22614034 -0.037010051 -0.97339141
vn -0.3794215 -0.21589085 -0.89968354
vn -0.48541081 -0.34968057 -0.80131131
vn -0.97616976 0.0097299982 -0.21678996
vn -0.97556478 0.012760063 -0.21934107
vn -0.94478583 -0.088759609 0.3154386
vn -0.96736753 0.011429971 0.25311938
vn -0.83836758 -0.38161886 0.38923886
vn -0.93495071 -0.0058000041 0.35473028
vn -0.61490601 -0.37057757 0.69610548
vn -0.580369 -0.38998929 0.71489877
vn -0.36749011 0.90987027 -0.19258006
vn -0.47308198 0.79076326 0.38844162
vn -0.092279717 0.7626977 0.64013803
vn 0.52020001 0.71816003 -0.46221003
vn -0.29849136 0.89927411 -0.31970146
vn -0.30651155 0.90264457 -0.30213153
vn 0.31972903 0.70621777 0.63168806
vn 0.30351946 0.69698876 0.64967883
vn 0.45857036 0.70538056 0.54051042
vn 0.39623865 0.67918772 0.61781794
vn 0.40522757 0.90257466 -0.14542913
vn 0.46001086 0.81721157 -0.34721065
vn 0.089670002 0.73777002 -0.66907001
vn 0.14352952 0.67181772 -0.72667754
vn -0.17466 0.95717001 0.23091
vn 0.37386054 0.66773093 -0.64371091
vn -0.065489806 0.82973754 -0.5542984
vn -0.07323008 0.83570087 -0.54428059

# Mesh 'node1' with 192 faces
g node1
usemtl $Material_0
f  1/1/1 2/2/1 3/3/1
f  1/1/2 3/3/2 4/4/2
f  5/5/3 6/6/3 7/7/3
f  5/5/4 7/7/4 8/8/4
f  9/9/5 10/10/5 11/11/5
f  9/9/6 11/11/6 12/12/6
f  13/13/7 8/14/7 7/15/7
f  13/13/8 7/15/8 14/16/8
f  15/17/9 16/18/9 17/19/9
f  15/17/10 17/19/10 18/20/10
f  19/21/11 20/22/11 21/23/11
f  19/21/12 21/23/12 22/24/12
f  23/25/13 24/26/13 25/27/13
f  23/25/14 25/27/14 26/28/14
f  27/29/15 28/30/15 29/31/15
f  27/29/16 29/31/16 30/32/16
f  31/33/17 32/34/17 33/35/17
f  31/33/18 33/35/18 34/36/18
f  35/37/19 36/38/19 37/39/19
f  35/37/20 37/39/20 38/40/20
f  39/41/21 40/42/21 41/43/21
f  39/41/22 41/43/22 42/44/22
f  43/45/23 16/46/23 44/47/23
f  43/45/24 44/47/24 45/48/24
f  46/49/25 47/50/25 48/51/25
f  46/49/26 48/51/26 49/52/26
f  50/53/27 51/54/27 52/55/27
f  50/53/28 52/55/28 53/56/28
f  54/57/29 55/58/29 56/59/29
f  54/57/30 56/59/30 57/60/30
f  58/61/31 59/62/31 60/63/31
f  58/61/32 60/63/32 61/64/32
f  62/65/33 63/66/33 64/67/33
f  62/65/34 64/67/34 65/68/34
f  66/69/35 38/70/35 37/71/35
f  66/69/36 37/71/36 67/72/36
f  68/73/37 69/74/37 70/75/37
f  68/73/38 70/75/38 22/24/38
f  71/76/39 72/77/39 73/78/39
f  71/76/40 73/78/40 74/79/40
f  75/80/41 6/81/41 44/82/41
f  75/80/42 44/82/42 76/83/42
f  77/84/43 78/85/43 70/75/43
f  77/84/44 70/75/44 18/20/44
f  79/86/45 80/87/45 81/88/45
f  79/86/46 81/88/46 82/89/46
f  83/90/47 84/91/47 85/92/47
f  83/90/48 85/92/48 86/93/48
f  24/26/49 1/1/49 4/4/49
f  24/26/50 4/4/50 25/27/50
f  29/31/51 34/36/51 1/1/51
f  29/31/52 1/1/52 24/26/52
f  34/36/53 33/35/53 2/2/53
f  34/36/54 2/2/54 1/1/54
f  36/38/55 5/5/55 8/8/55
f  36/38/56 8/8/56 37/39/56
f  41/43/57 45/48/57 5/5/57
f  41/43/58 5/5/58 36/38/58
f  45/48/59 44/47/59 6/6/59
f  45/48/60 6/6/60 5/5/60
f  47/94/61 9/9/61 12/12/61
f  47/94/62 12/12/62 48/95/62
f  52/55/63 57/96/63 9/97/63
f  52/55/64 9/97/64 47/50/64
f  57/96/65 56/98/65 10/99/65
f  57/96/66 10/99/66 9/97/66
f  59/100/67 13/13/67 14/16/67
f  59/100/68 14/16/68 60/101/68
f  64/102/69 67/103/69 13/104/69
f  64/102/70 13/104/70 59/105/70
f  67/106/71 37/107/71 8/14/71
f  67/106/72 8/14/72 13/13/72
f  69/74/73 15/17/73 18/20/73
f  69/74/74 18/20/74 70/75/74
f  73/78/75 76/83/75 15/108/75
f  73/78/76 15/108/76 69/109/76
f  76/83/77 44/82/77 16/110/77
f  76/83/78 16/110/78 15/108/78
f  78/85/79 19/21/79 22/24/79
f  78/85/80 22/24/80 70/75/80
f  81/88/81 86/93/81 19/21/81
f  81/88/82 19/21/82 78/85/82
f  86/111/83 85/112/83 20/113/83
f  86/111/84 20/113/84 19/114/84
f  20/22/85 23/115/85 26/116/85
f  20/22/86 26/116/86 21/23/86
f  85/92/87 30/117/87 23/115/87
f  85/92/88 23/115/88 20/22/88
f  30/32/89 29/31/89 24/26/89
f  30/32/90 24/26/90 23/25/90
f  84/91/91 27/118/91 30/117/91
f  84/91/92 30/117/92 85/92/92
f  87/119/93 88/120/93 27/29/93
f  87/119/94 27/29/94 84/121/94
f  88/120/95 89/122/95 28/30/95
f  88/120/96 28/30/96 27/29/96
f  28/30/97 31/33/97 34/36/97
f  28/30/98 34/36/98 29/31/98
f  89/122/99 90/123/99 31/33/99
f  89/122/100 31/33/100 28/30/100
f  90/123/101 91/124/101 32/34/101
f  90/123/102 32/34/102 31/33/102
f  10/10/103 35/125/103 38/70/103
f  10/10/104 38/70/104 11/11/104
f  56/126/105 42/44/105 35/37/105
f  56/126/106 35/37/106 10/127/106
f  42/44/107 41/43/107 36/38/107
f  42/44/108 36/38/108 35/37/108
f  55/128/109 39/41/109 42/44/109
f  55/128/110 42/44/110 56/126/110
f  92/129/111 93/130/111 39/41/111
f  92/129/112 39/41/112 55/128/112
f  93/130/113 94/131/113 40/42/113
f  93/130/114 40/42/114 39/41/114
f  40/42/115 43/45/115 45/48/115
f  40/42/116 45/48/116 41/43/116
f  94/131/117 95/132/117 43/45/117
f  94/131/118 43/45/118 40/42/118
f  95/132/119 17/133/119 16/46/119
f  95/132/120 16/46/120 43/45/120
f  90/134/121 46/49/121 49/52/121
f  90/134/122 49/52/122 91/135/122
f  89/136/123 53/56/123 46/49/123
f  89/136/124 46/49/124 90/134/124
f  53/56/125 52/55/125 47/50/125
f  53/56/126 47/50/126 46/49/126
f  88/137/127 50/53/127 53/56/127
f  88/137/128 53/56/128 89/136/128
f  87/138/129 96/139/129 50/53/129
f  87/138/130 50/53/130 88/137/130
f  96/139/131 97/140/131 51/54/131
f  96/139/132 51/54/132 50/53/132
f  51/54/133 54/141/133 57/96/133
f  51/54/134 57/96/134 52/55/134
f  97/140/135 98/142/135 54/141/135
f  97/140/136 54/141/136 51/54/136
f  98/142/137 92/143/137 55/144/137
f  98/142/138 55/144/138 54/141/138
f  2/2/139 58/61/139 61/64/139
f  2/2/140 61/64/140 3/3/140
f  33/35/141 65/145/141 58/61/141
f  33/35/142 58/61/142 2/2/142
f  65/68/143 64/67/143 59/146/143
f  65/68/144 59/146/144 58/147/144
f  32/34/145 62/148/145 65/145/145
f  32/34/146 65/145/146 33/35/146
f  91/124/147 49/149/147 62/148/147
f  91/124/148 62/148/148 32/34/148
f  49/150/149 48/95/149 63/66/149
f  49/150/150 63/66/150 62/65/150
f  63/66/151 66/69/151 67/72/151
f  63/66/152 67/72/152 64/67/152
f  48/95/153 12/12/153 66/69/153
f  48/95/154 66/69/154 63/66/154
f  12/12/155 11/11/155 38/70/155
f  12/12/156 38/70/156 66/69/156
f  26/116/157 68/73/157 22/24/157
f  26/116/158 22/24/158 21/23/158
f  25/27/159 74/151/159 68/152/159
f  25/27/160 68/152/160 26/28/160
f  74/79/161 73/78/161 69/109/161
f  74/79/162 69/109/162 68/153/162
f  4/4/163 71/154/163 74/151/163
f  4/4/164 74/151/164 25/27/164
f  3/3/165 61/64/165 71/154/165
f  3/3/166 71/154/166 4/4/166
f  61/155/167 60/101/167 72/77/167
f  61/155/168 72/77/168 71/76/168
f  72/77/169 75/80/169 76/83/169
f  72/77/170 76/83/170 73/78/170
f  60/101/171 14/16/171 75/80/171
f  60/101/172 75/80/172 72/77/172
f  14/16/173 7/15/173 6/81/173
f  14/16/174 6/81/174 75/80/174
f  95/156/175 77/84/175 18/20/175
f  95/156/176 18/20/176 17/19/176
f  94/157/177 82/89/177 77/84/177
f  94/157/178 77/84/178 95/156/178
f  82/89/179 81/88/179 78/85/179
f  82/89/180 78/85/180 77/84/180
f  93/130/181 79/158/181 82/159/181
f  93/130/182 82/159/182 94/131/182
f  92/143/183 98/142/183 79/160/183
f  92/143/184 79/160/184 93/161/184
f  98/142/185 97/140/185 80/162/185
f  98/142/186 80/162/186 79/160/186
f  80/87/187 83/90/187 86/93/187
f  80/87/188 86/93/188 81/88/188
f  97/163/189 96/164/189 83/90/189
f  97/163/190 83/90/190 80/87/190
f  96/164/191 87/165/191 84/91/191
f  96/164/192 84/91/192 83/90/192

